<mxfile host="Electron" modified="2023-05-18T19:32:55.898Z" agent="Mozilla/5.0 (X11; Linux x86_64) AppleWebKit/537.36 (KHTML, like Gecko) draw.io/21.1.2 Chrome/106.0.5249.199 Electron/21.4.3 Safari/537.36" etag="f_7e92lol6SFrSxOG99C" version="21.1.2" type="device">
  <diagram name="Página-1" id="LYE5CIv3qdAO098Iyr-i">
    <mxGraphModel dx="2074" dy="679" grid="1" gridSize="10" guides="1" tooltips="1" connect="1" arrows="1" fold="1" page="1" pageScale="1" pageWidth="827" pageHeight="1169" math="0" shadow="0">
      <root>
        <mxCell id="0" />
        <mxCell id="1" parent="0" />
        <mxCell id="GdIrwZQc3VLpYgN1qTWM-1" value="&lt;div&gt;Deseja-se fazer um sistema para armazenar as informações de uma&lt;span style=&quot;background-color: initial;&quot;&gt;locadora de jogos digitais. Cada jogo pode rodar em mais de uma plataforma (Xbox, PS3, PS4,&amp;nbsp;&lt;/span&gt;&lt;span style=&quot;background-color: initial;&quot;&gt;PC, etc.). Cada jogo possui seu preço diário de locação, sendo que um mesmo jogo pode ter&amp;nbsp;&lt;/span&gt;&lt;span style=&quot;background-color: initial;&quot;&gt;preços de locação diferentes para cada plataforma. Quando um cliente (nome, email, telefone,&amp;nbsp;&lt;/span&gt;&lt;span style=&quot;background-color: initial;&quot;&gt;senha) deseja fazer uma locação, ele informa quais jogos ele quer locar, informando inclusive de&amp;nbsp;&lt;/span&gt;&lt;span style=&quot;background-color: initial;&quot;&gt;qual plataforma é cada jogo contido na locação a ser realizada. Quando a locação é realizada, a&amp;nbsp;&lt;/span&gt;&lt;span style=&quot;background-color: initial;&quot;&gt;data atual deve ser registrada para esta locação. Para cada jogo locado, o cliente informa quantos&amp;nbsp;&lt;/span&gt;&lt;span style=&quot;background-color: initial;&quot;&gt;dias ele deseja ficar com cada um (note que ele pode alugar, por exemplo, um jogo X da&amp;nbsp;&lt;/span&gt;&lt;span style=&quot;background-color: initial;&quot;&gt;plataforma Xbox por 2 dias e um jogo Y da plataforma PC por 5 dias, tudo para a mesma&amp;nbsp;&lt;/span&gt;&lt;span style=&quot;background-color: initial;&quot;&gt;locação). A locadora também possui alguns consoles de vídeo game, os quais podem ser usados&amp;nbsp;&lt;/span&gt;&lt;span style=&quot;background-color: initial;&quot;&gt;no local pelos clientes por um certo intervalo de tempo. Cada console possui um preço por cada&lt;/span&gt;&lt;/div&gt;&lt;div&gt;hora (ou fração) utilizada, e contém um conjunto de acessórios (headphone, controle, Kinect,&amp;nbsp;&lt;span style=&quot;background-color: initial;&quot;&gt;etc.).&lt;/span&gt;&lt;/div&gt;" style="text;html=1;strokeColor=none;fillColor=none;align=center;verticalAlign=middle;whiteSpace=wrap;rounded=0;" vertex="1" parent="1">
          <mxGeometry x="20" y="20" width="790" height="130" as="geometry" />
        </mxCell>
        <mxCell id="GdIrwZQc3VLpYgN1qTWM-3" value="Instância mínima: 2 plataformas, 2 jogos para cada plataforma, 2 clientes, 2 locações, 2 itens para cada locação, 2 consoles, pelo menos um console com mais de um acessório, pelo menos um cliente com mais de uma utilização de&lt;br&gt;console." style="text;whiteSpace=wrap;html=1;" vertex="1" parent="1">
          <mxGeometry x="100" y="910" width="630" height="60" as="geometry" />
        </mxCell>
        <mxCell id="GdIrwZQc3VLpYgN1qTWM-4" value="Jogo" style="swimlane;fontStyle=0;childLayout=stackLayout;horizontal=1;startSize=26;fillColor=none;horizontalStack=0;resizeParent=1;resizeParentMax=0;resizeLast=0;collapsible=1;marginBottom=0;whiteSpace=wrap;html=1;" vertex="1" parent="1">
          <mxGeometry x="50" y="230" width="120" height="78" as="geometry" />
        </mxCell>
        <mxCell id="GdIrwZQc3VLpYgN1qTWM-5" value="- &amp;lt;&amp;lt;oid&amp;gt;&amp;gt; id: UUID" style="text;strokeColor=none;fillColor=none;align=left;verticalAlign=top;spacingLeft=4;spacingRight=4;overflow=hidden;rotatable=0;points=[[0,0.5],[1,0.5]];portConstraint=eastwest;whiteSpace=wrap;html=1;" vertex="1" parent="GdIrwZQc3VLpYgN1qTWM-4">
          <mxGeometry y="26" width="120" height="26" as="geometry" />
        </mxCell>
        <mxCell id="GdIrwZQc3VLpYgN1qTWM-6" value="- titulo: String" style="text;strokeColor=none;fillColor=none;align=left;verticalAlign=top;spacingLeft=4;spacingRight=4;overflow=hidden;rotatable=0;points=[[0,0.5],[1,0.5]];portConstraint=eastwest;whiteSpace=wrap;html=1;" vertex="1" parent="GdIrwZQc3VLpYgN1qTWM-4">
          <mxGeometry y="52" width="120" height="26" as="geometry" />
        </mxCell>
        <mxCell id="GdIrwZQc3VLpYgN1qTWM-8" value="Plataforma" style="swimlane;fontStyle=0;childLayout=stackLayout;horizontal=1;startSize=26;fillColor=none;horizontalStack=0;resizeParent=1;resizeParentMax=0;resizeLast=0;collapsible=1;marginBottom=0;whiteSpace=wrap;html=1;" vertex="1" parent="1">
          <mxGeometry x="610" y="230" width="120" height="80" as="geometry" />
        </mxCell>
        <mxCell id="GdIrwZQc3VLpYgN1qTWM-9" value="- &amp;lt;&amp;lt;oid&amp;gt;&amp;gt; id: UUID" style="text;strokeColor=none;fillColor=none;align=left;verticalAlign=top;spacingLeft=4;spacingRight=4;overflow=hidden;rotatable=0;points=[[0,0.5],[1,0.5]];portConstraint=eastwest;whiteSpace=wrap;html=1;" vertex="1" parent="GdIrwZQc3VLpYgN1qTWM-8">
          <mxGeometry y="26" width="120" height="26" as="geometry" />
        </mxCell>
        <mxCell id="GdIrwZQc3VLpYgN1qTWM-10" value="- nome: String" style="text;strokeColor=none;fillColor=none;align=left;verticalAlign=top;spacingLeft=4;spacingRight=4;overflow=hidden;rotatable=0;points=[[0,0.5],[1,0.5]];portConstraint=eastwest;whiteSpace=wrap;html=1;" vertex="1" parent="GdIrwZQc3VLpYgN1qTWM-8">
          <mxGeometry y="52" width="120" height="28" as="geometry" />
        </mxCell>
        <mxCell id="GdIrwZQc3VLpYgN1qTWM-45" style="edgeStyle=orthogonalEdgeStyle;rounded=0;orthogonalLoop=1;jettySize=auto;html=1;endArrow=none;endFill=0;dashed=1;" edge="1" parent="1" source="GdIrwZQc3VLpYgN1qTWM-15">
          <mxGeometry relative="1" as="geometry">
            <mxPoint x="385" y="270" as="targetPoint" />
          </mxGeometry>
        </mxCell>
        <mxCell id="GdIrwZQc3VLpYgN1qTWM-15" value="JogoPlataforma" style="swimlane;fontStyle=0;childLayout=stackLayout;horizontal=1;startSize=26;fillColor=none;horizontalStack=0;resizeParent=1;resizeParentMax=0;resizeLast=0;collapsible=1;marginBottom=0;whiteSpace=wrap;html=1;" vertex="1" parent="1">
          <mxGeometry x="330" y="314" width="110" height="52" as="geometry" />
        </mxCell>
        <mxCell id="GdIrwZQc3VLpYgN1qTWM-18" value="- preco: Double" style="text;strokeColor=none;fillColor=none;align=left;verticalAlign=top;spacingLeft=4;spacingRight=4;overflow=hidden;rotatable=0;points=[[0,0.5],[1,0.5]];portConstraint=eastwest;whiteSpace=wrap;html=1;" vertex="1" parent="GdIrwZQc3VLpYgN1qTWM-15">
          <mxGeometry y="26" width="110" height="26" as="geometry" />
        </mxCell>
        <mxCell id="GdIrwZQc3VLpYgN1qTWM-39" style="edgeStyle=orthogonalEdgeStyle;rounded=0;orthogonalLoop=1;jettySize=auto;html=1;endArrow=none;endFill=0;" edge="1" parent="1" source="GdIrwZQc3VLpYgN1qTWM-5" target="GdIrwZQc3VLpYgN1qTWM-9">
          <mxGeometry relative="1" as="geometry" />
        </mxCell>
        <mxCell id="GdIrwZQc3VLpYgN1qTWM-41" value="1..*" style="edgeLabel;html=1;align=center;verticalAlign=middle;resizable=0;points=[];" vertex="1" connectable="0" parent="GdIrwZQc3VLpYgN1qTWM-39">
          <mxGeometry x="0.9045" y="-2" relative="1" as="geometry">
            <mxPoint x="7" y="-13" as="offset" />
          </mxGeometry>
        </mxCell>
        <mxCell id="GdIrwZQc3VLpYgN1qTWM-42" value="- plataformas" style="edgeLabel;html=1;align=center;verticalAlign=middle;resizable=0;points=[];" vertex="1" connectable="0" parent="GdIrwZQc3VLpYgN1qTWM-39">
          <mxGeometry x="0.8909" y="-1" relative="1" as="geometry">
            <mxPoint x="-14" y="10" as="offset" />
          </mxGeometry>
        </mxCell>
        <mxCell id="GdIrwZQc3VLpYgN1qTWM-43" value="*" style="edgeLabel;html=1;align=center;verticalAlign=middle;resizable=0;points=[];" vertex="1" connectable="0" parent="GdIrwZQc3VLpYgN1qTWM-39">
          <mxGeometry x="-0.9136" y="-1" relative="1" as="geometry">
            <mxPoint x="-13" y="-12" as="offset" />
          </mxGeometry>
        </mxCell>
        <mxCell id="GdIrwZQc3VLpYgN1qTWM-44" value="- jogos" style="edgeLabel;html=1;align=center;verticalAlign=middle;resizable=0;points=[];" vertex="1" connectable="0" parent="GdIrwZQc3VLpYgN1qTWM-39">
          <mxGeometry x="-0.8682" y="1" relative="1" as="geometry">
            <mxPoint x="-10" y="12" as="offset" />
          </mxGeometry>
        </mxCell>
        <mxCell id="GdIrwZQc3VLpYgN1qTWM-46" value="Cliente" style="swimlane;fontStyle=0;childLayout=stackLayout;horizontal=1;startSize=26;fillColor=none;horizontalStack=0;resizeParent=1;resizeParentMax=0;resizeLast=0;collapsible=1;marginBottom=0;whiteSpace=wrap;html=1;" vertex="1" parent="1">
          <mxGeometry x="40" y="438" width="140" height="156" as="geometry" />
        </mxCell>
        <mxCell id="GdIrwZQc3VLpYgN1qTWM-53" value="- &amp;lt;&amp;lt;oid&amp;gt;&amp;gt; id: UUID" style="text;strokeColor=none;fillColor=none;align=left;verticalAlign=top;spacingLeft=4;spacingRight=4;overflow=hidden;rotatable=0;points=[[0,0.5],[1,0.5]];portConstraint=eastwest;whiteSpace=wrap;html=1;" vertex="1" parent="GdIrwZQc3VLpYgN1qTWM-46">
          <mxGeometry y="26" width="140" height="26" as="geometry" />
        </mxCell>
        <mxCell id="GdIrwZQc3VLpYgN1qTWM-47" value="- nome: String" style="text;strokeColor=none;fillColor=none;align=left;verticalAlign=top;spacingLeft=4;spacingRight=4;overflow=hidden;rotatable=0;points=[[0,0.5],[1,0.5]];portConstraint=eastwest;whiteSpace=wrap;html=1;" vertex="1" parent="GdIrwZQc3VLpYgN1qTWM-46">
          <mxGeometry y="52" width="140" height="26" as="geometry" />
        </mxCell>
        <mxCell id="GdIrwZQc3VLpYgN1qTWM-50" value="- email: String" style="text;strokeColor=none;fillColor=none;align=left;verticalAlign=top;spacingLeft=4;spacingRight=4;overflow=hidden;rotatable=0;points=[[0,0.5],[1,0.5]];portConstraint=eastwest;whiteSpace=wrap;html=1;" vertex="1" parent="GdIrwZQc3VLpYgN1qTWM-46">
          <mxGeometry y="78" width="140" height="26" as="geometry" />
        </mxCell>
        <mxCell id="GdIrwZQc3VLpYgN1qTWM-51" value="- telefone: String" style="text;strokeColor=none;fillColor=none;align=left;verticalAlign=top;spacingLeft=4;spacingRight=4;overflow=hidden;rotatable=0;points=[[0,0.5],[1,0.5]];portConstraint=eastwest;whiteSpace=wrap;html=1;" vertex="1" parent="GdIrwZQc3VLpYgN1qTWM-46">
          <mxGeometry y="104" width="140" height="26" as="geometry" />
        </mxCell>
        <mxCell id="GdIrwZQc3VLpYgN1qTWM-52" value="- senha: String" style="text;strokeColor=none;fillColor=none;align=left;verticalAlign=top;spacingLeft=4;spacingRight=4;overflow=hidden;rotatable=0;points=[[0,0.5],[1,0.5]];portConstraint=eastwest;whiteSpace=wrap;html=1;" vertex="1" parent="GdIrwZQc3VLpYgN1qTWM-46">
          <mxGeometry y="130" width="140" height="26" as="geometry" />
        </mxCell>
        <mxCell id="GdIrwZQc3VLpYgN1qTWM-79" style="edgeStyle=orthogonalEdgeStyle;rounded=0;orthogonalLoop=1;jettySize=auto;html=1;endArrow=none;endFill=0;" edge="1" parent="1" source="GdIrwZQc3VLpYgN1qTWM-54" target="GdIrwZQc3VLpYgN1qTWM-15">
          <mxGeometry relative="1" as="geometry" />
        </mxCell>
        <mxCell id="GdIrwZQc3VLpYgN1qTWM-82" value="*" style="edgeLabel;html=1;align=center;verticalAlign=middle;resizable=0;points=[];" vertex="1" connectable="0" parent="GdIrwZQc3VLpYgN1qTWM-79">
          <mxGeometry x="0.7742" relative="1" as="geometry">
            <mxPoint x="4" y="100" as="offset" />
          </mxGeometry>
        </mxCell>
        <mxCell id="GdIrwZQc3VLpYgN1qTWM-83" value="- locacoes" style="edgeLabel;html=1;align=center;verticalAlign=middle;resizable=0;points=[];" vertex="1" connectable="0" parent="GdIrwZQc3VLpYgN1qTWM-79">
          <mxGeometry x="0.7903" y="2" relative="1" as="geometry">
            <mxPoint x="-27" y="99" as="offset" />
          </mxGeometry>
        </mxCell>
        <mxCell id="GdIrwZQc3VLpYgN1qTWM-84" value="1..*" style="edgeLabel;html=1;align=center;verticalAlign=middle;resizable=0;points=[];" vertex="1" connectable="0" parent="GdIrwZQc3VLpYgN1qTWM-79">
          <mxGeometry x="0.7742" y="-3" relative="1" as="geometry">
            <mxPoint x="7" y="-4" as="offset" />
          </mxGeometry>
        </mxCell>
        <mxCell id="GdIrwZQc3VLpYgN1qTWM-85" value="- jogo" style="edgeLabel;html=1;align=center;verticalAlign=middle;resizable=0;points=[];" vertex="1" connectable="0" parent="GdIrwZQc3VLpYgN1qTWM-79">
          <mxGeometry x="0.6613" y="-1" relative="1" as="geometry">
            <mxPoint x="-21" y="-12" as="offset" />
          </mxGeometry>
        </mxCell>
        <mxCell id="GdIrwZQc3VLpYgN1qTWM-54" value="Locacao" style="swimlane;fontStyle=0;childLayout=stackLayout;horizontal=1;startSize=26;fillColor=none;horizontalStack=0;resizeParent=1;resizeParentMax=0;resizeLast=0;collapsible=1;marginBottom=0;whiteSpace=wrap;html=1;" vertex="1" parent="1">
          <mxGeometry x="315" y="490" width="140" height="78" as="geometry" />
        </mxCell>
        <mxCell id="GdIrwZQc3VLpYgN1qTWM-55" value="- &amp;lt;&amp;lt;oid&amp;gt;&amp;gt; id: UUID" style="text;strokeColor=none;fillColor=none;align=left;verticalAlign=top;spacingLeft=4;spacingRight=4;overflow=hidden;rotatable=0;points=[[0,0.5],[1,0.5]];portConstraint=eastwest;whiteSpace=wrap;html=1;" vertex="1" parent="GdIrwZQc3VLpYgN1qTWM-54">
          <mxGeometry y="26" width="140" height="26" as="geometry" />
        </mxCell>
        <mxCell id="GdIrwZQc3VLpYgN1qTWM-80" value="- data: Date" style="text;strokeColor=none;fillColor=none;align=left;verticalAlign=top;spacingLeft=4;spacingRight=4;overflow=hidden;rotatable=0;points=[[0,0.5],[1,0.5]];portConstraint=eastwest;whiteSpace=wrap;html=1;" vertex="1" parent="GdIrwZQc3VLpYgN1qTWM-54">
          <mxGeometry y="52" width="140" height="26" as="geometry" />
        </mxCell>
        <mxCell id="GdIrwZQc3VLpYgN1qTWM-63" style="edgeStyle=orthogonalEdgeStyle;rounded=0;orthogonalLoop=1;jettySize=auto;html=1;endArrow=none;endFill=0;" edge="1" parent="1" source="GdIrwZQc3VLpYgN1qTWM-50" target="GdIrwZQc3VLpYgN1qTWM-54">
          <mxGeometry relative="1" as="geometry" />
        </mxCell>
        <mxCell id="GdIrwZQc3VLpYgN1qTWM-64" value="*" style="edgeLabel;html=1;align=center;verticalAlign=middle;resizable=0;points=[];" vertex="1" connectable="0" parent="GdIrwZQc3VLpYgN1qTWM-63">
          <mxGeometry x="0.763" relative="1" as="geometry">
            <mxPoint x="8" y="-10" as="offset" />
          </mxGeometry>
        </mxCell>
        <mxCell id="GdIrwZQc3VLpYgN1qTWM-65" value="- locacoes" style="edgeLabel;html=1;align=center;verticalAlign=middle;resizable=0;points=[];" vertex="1" connectable="0" parent="GdIrwZQc3VLpYgN1qTWM-63">
          <mxGeometry x="0.8222" y="-2" relative="1" as="geometry">
            <mxPoint x="-18" y="8" as="offset" />
          </mxGeometry>
        </mxCell>
        <mxCell id="GdIrwZQc3VLpYgN1qTWM-66" value="1" style="edgeLabel;html=1;align=center;verticalAlign=middle;resizable=0;points=[];" vertex="1" connectable="0" parent="GdIrwZQc3VLpYgN1qTWM-63">
          <mxGeometry x="-0.8074" relative="1" as="geometry">
            <mxPoint x="-8" y="-10" as="offset" />
          </mxGeometry>
        </mxCell>
        <mxCell id="GdIrwZQc3VLpYgN1qTWM-67" value="- locador" style="edgeLabel;html=1;align=center;verticalAlign=middle;resizable=0;points=[];" vertex="1" connectable="0" parent="GdIrwZQc3VLpYgN1qTWM-63">
          <mxGeometry x="-0.7037" y="-1" relative="1" as="geometry">
            <mxPoint x="4" y="9" as="offset" />
          </mxGeometry>
        </mxCell>
        <mxCell id="GdIrwZQc3VLpYgN1qTWM-81" style="edgeStyle=orthogonalEdgeStyle;rounded=0;orthogonalLoop=1;jettySize=auto;html=1;endArrow=none;endFill=0;dashed=1;" edge="1" parent="1" source="GdIrwZQc3VLpYgN1qTWM-68">
          <mxGeometry relative="1" as="geometry">
            <mxPoint x="386" y="426" as="targetPoint" />
            <mxPoint x="516" y="426" as="sourcePoint" />
          </mxGeometry>
        </mxCell>
        <mxCell id="GdIrwZQc3VLpYgN1qTWM-68" value="DetalhesLocacao" style="swimlane;fontStyle=0;childLayout=stackLayout;horizontal=1;startSize=26;fillColor=none;horizontalStack=0;resizeParent=1;resizeParentMax=0;resizeLast=0;collapsible=1;marginBottom=0;whiteSpace=wrap;html=1;" vertex="1" parent="1">
          <mxGeometry x="510" y="387" width="200" height="78" as="geometry" />
        </mxCell>
        <mxCell id="GdIrwZQc3VLpYgN1qTWM-69" value="- duracaoLocacao: Integer" style="text;strokeColor=none;fillColor=none;align=left;verticalAlign=top;spacingLeft=4;spacingRight=4;overflow=hidden;rotatable=0;points=[[0,0.5],[1,0.5]];portConstraint=eastwest;whiteSpace=wrap;html=1;" vertex="1" parent="GdIrwZQc3VLpYgN1qTWM-68">
          <mxGeometry y="26" width="200" height="26" as="geometry" />
        </mxCell>
        <mxCell id="GdIrwZQc3VLpYgN1qTWM-86" value="- quantidade: Integer" style="text;strokeColor=none;fillColor=none;align=left;verticalAlign=top;spacingLeft=4;spacingRight=4;overflow=hidden;rotatable=0;points=[[0,0.5],[1,0.5]];portConstraint=eastwest;whiteSpace=wrap;html=1;" vertex="1" parent="GdIrwZQc3VLpYgN1qTWM-68">
          <mxGeometry y="52" width="200" height="26" as="geometry" />
        </mxCell>
        <mxCell id="GdIrwZQc3VLpYgN1qTWM-102" style="edgeStyle=orthogonalEdgeStyle;rounded=0;orthogonalLoop=1;jettySize=auto;html=1;endArrow=none;endFill=0;" edge="1" parent="1" source="GdIrwZQc3VLpYgN1qTWM-87" target="GdIrwZQc3VLpYgN1qTWM-96">
          <mxGeometry relative="1" as="geometry" />
        </mxCell>
        <mxCell id="GdIrwZQc3VLpYgN1qTWM-111" value="1" style="edgeLabel;html=1;align=center;verticalAlign=middle;resizable=0;points=[];" vertex="1" connectable="0" parent="GdIrwZQc3VLpYgN1qTWM-102">
          <mxGeometry x="-0.6891" y="-1" relative="1" as="geometry">
            <mxPoint x="17" y="-11" as="offset" />
          </mxGeometry>
        </mxCell>
        <mxCell id="GdIrwZQc3VLpYgN1qTWM-115" value="- console" style="edgeLabel;html=1;align=center;verticalAlign=middle;resizable=0;points=[];" vertex="1" connectable="0" parent="GdIrwZQc3VLpYgN1qTWM-102">
          <mxGeometry x="-0.7915" y="1" relative="1" as="geometry">
            <mxPoint x="-9" y="10" as="offset" />
          </mxGeometry>
        </mxCell>
        <mxCell id="GdIrwZQc3VLpYgN1qTWM-116" value="*" style="edgeLabel;html=1;align=center;verticalAlign=middle;resizable=0;points=[];" vertex="1" connectable="0" parent="GdIrwZQc3VLpYgN1qTWM-102">
          <mxGeometry x="0.7739" y="-2" relative="1" as="geometry">
            <mxPoint x="-11" y="-7" as="offset" />
          </mxGeometry>
        </mxCell>
        <mxCell id="GdIrwZQc3VLpYgN1qTWM-117" value="- utilizacoes" style="edgeLabel;html=1;align=center;verticalAlign=middle;resizable=0;points=[];" vertex="1" connectable="0" parent="GdIrwZQc3VLpYgN1qTWM-102">
          <mxGeometry x="0.8396" relative="1" as="geometry">
            <mxPoint x="21" y="10" as="offset" />
          </mxGeometry>
        </mxCell>
        <mxCell id="GdIrwZQc3VLpYgN1qTWM-87" value="Console" style="swimlane;fontStyle=0;childLayout=stackLayout;horizontal=1;startSize=26;fillColor=none;horizontalStack=0;resizeParent=1;resizeParentMax=0;resizeLast=0;collapsible=1;marginBottom=0;whiteSpace=wrap;html=1;" vertex="1" parent="1">
          <mxGeometry x="350" y="730" width="140" height="104" as="geometry" />
        </mxCell>
        <mxCell id="GdIrwZQc3VLpYgN1qTWM-88" value="- &amp;lt;&amp;lt;oid&amp;gt;&amp;gt; id: UUID" style="text;strokeColor=none;fillColor=none;align=left;verticalAlign=top;spacingLeft=4;spacingRight=4;overflow=hidden;rotatable=0;points=[[0,0.5],[1,0.5]];portConstraint=eastwest;whiteSpace=wrap;html=1;" vertex="1" parent="GdIrwZQc3VLpYgN1qTWM-87">
          <mxGeometry y="26" width="140" height="26" as="geometry" />
        </mxCell>
        <mxCell id="GdIrwZQc3VLpYgN1qTWM-89" value="- nome: String" style="text;strokeColor=none;fillColor=none;align=left;verticalAlign=top;spacingLeft=4;spacingRight=4;overflow=hidden;rotatable=0;points=[[0,0.5],[1,0.5]];portConstraint=eastwest;whiteSpace=wrap;html=1;" vertex="1" parent="GdIrwZQc3VLpYgN1qTWM-87">
          <mxGeometry y="52" width="140" height="26" as="geometry" />
        </mxCell>
        <mxCell id="GdIrwZQc3VLpYgN1qTWM-118" value="- PrecoHora: Double" style="text;strokeColor=none;fillColor=none;align=left;verticalAlign=top;spacingLeft=4;spacingRight=4;overflow=hidden;rotatable=0;points=[[0,0.5],[1,0.5]];portConstraint=eastwest;whiteSpace=wrap;html=1;" vertex="1" parent="GdIrwZQc3VLpYgN1qTWM-87">
          <mxGeometry y="78" width="140" height="26" as="geometry" />
        </mxCell>
        <mxCell id="GdIrwZQc3VLpYgN1qTWM-103" style="edgeStyle=orthogonalEdgeStyle;rounded=0;orthogonalLoop=1;jettySize=auto;html=1;endArrow=none;endFill=0;" edge="1" parent="1" source="GdIrwZQc3VLpYgN1qTWM-96">
          <mxGeometry relative="1" as="geometry">
            <mxPoint x="110" y="594" as="targetPoint" />
          </mxGeometry>
        </mxCell>
        <mxCell id="GdIrwZQc3VLpYgN1qTWM-110" value="1" style="edgeLabel;html=1;align=center;verticalAlign=middle;resizable=0;points=[];" vertex="1" connectable="0" parent="GdIrwZQc3VLpYgN1qTWM-103">
          <mxGeometry x="0.8365" y="-2" relative="1" as="geometry">
            <mxPoint x="4" y="-2" as="offset" />
          </mxGeometry>
        </mxCell>
        <mxCell id="GdIrwZQc3VLpYgN1qTWM-112" value="- cliente" style="edgeLabel;html=1;align=center;verticalAlign=middle;resizable=0;points=[];" vertex="1" connectable="0" parent="GdIrwZQc3VLpYgN1qTWM-103">
          <mxGeometry x="0.8529" y="-1" relative="1" as="geometry">
            <mxPoint x="-25" as="offset" />
          </mxGeometry>
        </mxCell>
        <mxCell id="GdIrwZQc3VLpYgN1qTWM-113" value="*" style="edgeLabel;html=1;align=center;verticalAlign=middle;resizable=0;points=[];" vertex="1" connectable="0" parent="GdIrwZQc3VLpYgN1qTWM-103">
          <mxGeometry x="-0.8118" y="-1" relative="1" as="geometry">
            <mxPoint x="4" y="1" as="offset" />
          </mxGeometry>
        </mxCell>
        <mxCell id="GdIrwZQc3VLpYgN1qTWM-114" value="- utilizacoes" style="edgeLabel;html=1;align=center;verticalAlign=middle;resizable=0;points=[];" vertex="1" connectable="0" parent="GdIrwZQc3VLpYgN1qTWM-103">
          <mxGeometry x="-0.8471" relative="1" as="geometry">
            <mxPoint x="-33" y="-4" as="offset" />
          </mxGeometry>
        </mxCell>
        <mxCell id="GdIrwZQc3VLpYgN1qTWM-96" value="Utilizacao" style="swimlane;fontStyle=0;childLayout=stackLayout;horizontal=1;startSize=26;fillColor=none;horizontalStack=0;resizeParent=1;resizeParentMax=0;resizeLast=0;collapsible=1;marginBottom=0;whiteSpace=wrap;html=1;" vertex="1" parent="1">
          <mxGeometry x="40" y="730" width="140" height="104" as="geometry" />
        </mxCell>
        <mxCell id="GdIrwZQc3VLpYgN1qTWM-98" value="- &amp;lt;&amp;lt;oid&amp;gt;&amp;gt; id: UUID" style="text;strokeColor=none;fillColor=none;align=left;verticalAlign=top;spacingLeft=4;spacingRight=4;overflow=hidden;rotatable=0;points=[[0,0.5],[1,0.5]];portConstraint=eastwest;whiteSpace=wrap;html=1;" vertex="1" parent="GdIrwZQc3VLpYgN1qTWM-96">
          <mxGeometry y="26" width="140" height="26" as="geometry" />
        </mxCell>
        <mxCell id="GdIrwZQc3VLpYgN1qTWM-106" value="- inicio: Datetime" style="text;strokeColor=none;fillColor=none;align=left;verticalAlign=top;spacingLeft=4;spacingRight=4;overflow=hidden;rotatable=0;points=[[0,0.5],[1,0.5]];portConstraint=eastwest;whiteSpace=wrap;html=1;" vertex="1" parent="GdIrwZQc3VLpYgN1qTWM-96">
          <mxGeometry y="52" width="140" height="26" as="geometry" />
        </mxCell>
        <mxCell id="GdIrwZQc3VLpYgN1qTWM-109" value="- termino: Datetime" style="text;strokeColor=none;fillColor=none;align=left;verticalAlign=top;spacingLeft=4;spacingRight=4;overflow=hidden;rotatable=0;points=[[0,0.5],[1,0.5]];portConstraint=eastwest;whiteSpace=wrap;html=1;" vertex="1" parent="GdIrwZQc3VLpYgN1qTWM-96">
          <mxGeometry y="78" width="140" height="26" as="geometry" />
        </mxCell>
        <mxCell id="GdIrwZQc3VLpYgN1qTWM-119" value="Acessorio" style="swimlane;fontStyle=0;childLayout=stackLayout;horizontal=1;startSize=26;fillColor=none;horizontalStack=0;resizeParent=1;resizeParentMax=0;resizeLast=0;collapsible=1;marginBottom=0;whiteSpace=wrap;html=1;" vertex="1" parent="1">
          <mxGeometry x="660" y="743" width="140" height="78" as="geometry" />
        </mxCell>
        <mxCell id="GdIrwZQc3VLpYgN1qTWM-120" value="- &amp;lt;&amp;lt;oid&amp;gt;&amp;gt; id: UUID" style="text;strokeColor=none;fillColor=none;align=left;verticalAlign=top;spacingLeft=4;spacingRight=4;overflow=hidden;rotatable=0;points=[[0,0.5],[1,0.5]];portConstraint=eastwest;whiteSpace=wrap;html=1;" vertex="1" parent="GdIrwZQc3VLpYgN1qTWM-119">
          <mxGeometry y="26" width="140" height="26" as="geometry" />
        </mxCell>
        <mxCell id="GdIrwZQc3VLpYgN1qTWM-121" value="- nome: String" style="text;strokeColor=none;fillColor=none;align=left;verticalAlign=top;spacingLeft=4;spacingRight=4;overflow=hidden;rotatable=0;points=[[0,0.5],[1,0.5]];portConstraint=eastwest;whiteSpace=wrap;html=1;" vertex="1" parent="GdIrwZQc3VLpYgN1qTWM-119">
          <mxGeometry y="52" width="140" height="26" as="geometry" />
        </mxCell>
        <mxCell id="GdIrwZQc3VLpYgN1qTWM-124" value="" style="endArrow=diamondThin;endFill=0;endSize=24;html=1;rounded=0;" edge="1" parent="1" source="GdIrwZQc3VLpYgN1qTWM-119" target="GdIrwZQc3VLpYgN1qTWM-87">
          <mxGeometry width="160" relative="1" as="geometry">
            <mxPoint x="270" y="710" as="sourcePoint" />
            <mxPoint x="430" y="710" as="targetPoint" />
          </mxGeometry>
        </mxCell>
        <mxCell id="GdIrwZQc3VLpYgN1qTWM-125" value="0..*" style="edgeLabel;html=1;align=center;verticalAlign=middle;resizable=0;points=[];" vertex="1" connectable="0" parent="GdIrwZQc3VLpYgN1qTWM-124">
          <mxGeometry x="-0.759" y="1" relative="1" as="geometry">
            <mxPoint x="9" y="-11" as="offset" />
          </mxGeometry>
        </mxCell>
        <mxCell id="GdIrwZQc3VLpYgN1qTWM-126" value="- acessorios" style="edgeLabel;html=1;align=center;verticalAlign=middle;resizable=0;points=[];" vertex="1" connectable="0" parent="GdIrwZQc3VLpYgN1qTWM-124">
          <mxGeometry x="-0.6924" y="1" relative="1" as="geometry">
            <mxPoint x="-5" y="10" as="offset" />
          </mxGeometry>
        </mxCell>
        <mxCell id="GdIrwZQc3VLpYgN1qTWM-127" value="*" style="edgeLabel;html=1;align=center;verticalAlign=middle;resizable=0;points=[];" vertex="1" connectable="0" parent="GdIrwZQc3VLpYgN1qTWM-124">
          <mxGeometry x="0.6029" y="-1" relative="1" as="geometry">
            <mxPoint y="-9" as="offset" />
          </mxGeometry>
        </mxCell>
        <mxCell id="GdIrwZQc3VLpYgN1qTWM-128" value="- consoles" style="edgeLabel;html=1;align=center;verticalAlign=middle;resizable=0;points=[];" vertex="1" connectable="0" parent="GdIrwZQc3VLpYgN1qTWM-124">
          <mxGeometry x="0.5743" y="1" relative="1" as="geometry">
            <mxPoint x="3" y="11" as="offset" />
          </mxGeometry>
        </mxCell>
        <mxCell id="GdIrwZQc3VLpYgN1qTWM-129" value="p1: Plataforma" style="swimlane;fontStyle=0;childLayout=stackLayout;horizontal=1;startSize=26;fillColor=none;horizontalStack=0;resizeParent=1;resizeParentMax=0;resizeLast=0;collapsible=1;marginBottom=0;whiteSpace=wrap;html=1;" vertex="1" parent="1">
          <mxGeometry x="155" y="1130" width="140" height="52" as="geometry" />
        </mxCell>
        <mxCell id="GdIrwZQc3VLpYgN1qTWM-130" value="nome = &quot;PS5&quot;" style="text;strokeColor=none;fillColor=none;align=left;verticalAlign=top;spacingLeft=4;spacingRight=4;overflow=hidden;rotatable=0;points=[[0,0.5],[1,0.5]];portConstraint=eastwest;whiteSpace=wrap;html=1;" vertex="1" parent="GdIrwZQc3VLpYgN1qTWM-129">
          <mxGeometry y="26" width="140" height="26" as="geometry" />
        </mxCell>
        <mxCell id="GdIrwZQc3VLpYgN1qTWM-137" value="p2: Plataforma" style="swimlane;fontStyle=0;childLayout=stackLayout;horizontal=1;startSize=26;fillColor=none;horizontalStack=0;resizeParent=1;resizeParentMax=0;resizeLast=0;collapsible=1;marginBottom=0;whiteSpace=wrap;html=1;" vertex="1" parent="1">
          <mxGeometry x="725" y="1130" width="140" height="52" as="geometry" />
        </mxCell>
        <mxCell id="GdIrwZQc3VLpYgN1qTWM-138" value="nome = &quot;Xbox&quot;" style="text;strokeColor=none;fillColor=none;align=left;verticalAlign=top;spacingLeft=4;spacingRight=4;overflow=hidden;rotatable=0;points=[[0,0.5],[1,0.5]];portConstraint=eastwest;whiteSpace=wrap;html=1;" vertex="1" parent="GdIrwZQc3VLpYgN1qTWM-137">
          <mxGeometry y="26" width="140" height="26" as="geometry" />
        </mxCell>
        <mxCell id="GdIrwZQc3VLpYgN1qTWM-172" style="edgeStyle=orthogonalEdgeStyle;rounded=0;orthogonalLoop=1;jettySize=auto;html=1;endArrow=none;endFill=0;" edge="1" parent="1" source="GdIrwZQc3VLpYgN1qTWM-143" target="GdIrwZQc3VLpYgN1qTWM-169">
          <mxGeometry relative="1" as="geometry" />
        </mxCell>
        <mxCell id="GdIrwZQc3VLpYgN1qTWM-143" value="j1: Jogo" style="swimlane;fontStyle=0;childLayout=stackLayout;horizontal=1;startSize=26;fillColor=none;horizontalStack=0;resizeParent=1;resizeParentMax=0;resizeLast=0;collapsible=1;marginBottom=0;whiteSpace=wrap;html=1;" vertex="1" parent="1">
          <mxGeometry x="-145" y="1000" width="120" height="52" as="geometry" />
        </mxCell>
        <mxCell id="GdIrwZQc3VLpYgN1qTWM-144" value="titulo = &quot;FIFA23&quot;" style="text;strokeColor=none;fillColor=none;align=left;verticalAlign=top;spacingLeft=4;spacingRight=4;overflow=hidden;rotatable=0;points=[[0,0.5],[1,0.5]];portConstraint=eastwest;whiteSpace=wrap;html=1;" vertex="1" parent="GdIrwZQc3VLpYgN1qTWM-143">
          <mxGeometry y="26" width="120" height="26" as="geometry" />
        </mxCell>
        <mxCell id="GdIrwZQc3VLpYgN1qTWM-146" value="j3: Jogo" style="swimlane;fontStyle=0;childLayout=stackLayout;horizontal=1;startSize=26;fillColor=none;horizontalStack=0;resizeParent=1;resizeParentMax=0;resizeLast=0;collapsible=1;marginBottom=0;whiteSpace=wrap;html=1;" vertex="1" parent="1">
          <mxGeometry x="460" y="1250" width="120" height="52" as="geometry" />
        </mxCell>
        <mxCell id="GdIrwZQc3VLpYgN1qTWM-147" value="titulo = &quot;Call of Duty&quot;" style="text;strokeColor=none;fillColor=none;align=left;verticalAlign=top;spacingLeft=4;spacingRight=4;overflow=hidden;rotatable=0;points=[[0,0.5],[1,0.5]];portConstraint=eastwest;whiteSpace=wrap;html=1;" vertex="1" parent="GdIrwZQc3VLpYgN1qTWM-146">
          <mxGeometry y="26" width="120" height="26" as="geometry" />
        </mxCell>
        <mxCell id="GdIrwZQc3VLpYgN1qTWM-166" style="edgeStyle=orthogonalEdgeStyle;rounded=0;orthogonalLoop=1;jettySize=auto;html=1;endArrow=none;endFill=0;" edge="1" parent="1" source="GdIrwZQc3VLpYgN1qTWM-148" target="GdIrwZQc3VLpYgN1qTWM-164">
          <mxGeometry relative="1" as="geometry" />
        </mxCell>
        <mxCell id="GdIrwZQc3VLpYgN1qTWM-148" value="j4: Jogo" style="swimlane;fontStyle=0;childLayout=stackLayout;horizontal=1;startSize=26;fillColor=none;horizontalStack=0;resizeParent=1;resizeParentMax=0;resizeLast=0;collapsible=1;marginBottom=0;whiteSpace=wrap;html=1;" vertex="1" parent="1">
          <mxGeometry x="1040" y="980" width="130" height="52" as="geometry" />
        </mxCell>
        <mxCell id="GdIrwZQc3VLpYgN1qTWM-149" value="titulo = &quot;Gears of War&quot;" style="text;strokeColor=none;fillColor=none;align=left;verticalAlign=top;spacingLeft=4;spacingRight=4;overflow=hidden;rotatable=0;points=[[0,0.5],[1,0.5]];portConstraint=eastwest;whiteSpace=wrap;html=1;" vertex="1" parent="GdIrwZQc3VLpYgN1qTWM-148">
          <mxGeometry y="26" width="130" height="26" as="geometry" />
        </mxCell>
        <mxCell id="GdIrwZQc3VLpYgN1qTWM-175" style="edgeStyle=orthogonalEdgeStyle;rounded=0;orthogonalLoop=1;jettySize=auto;html=1;endArrow=none;endFill=0;" edge="1" parent="1" source="GdIrwZQc3VLpYgN1qTWM-151" target="GdIrwZQc3VLpYgN1qTWM-173">
          <mxGeometry relative="1" as="geometry" />
        </mxCell>
        <mxCell id="GdIrwZQc3VLpYgN1qTWM-151" value="j2: Jogo" style="swimlane;fontStyle=0;childLayout=stackLayout;horizontal=1;startSize=26;fillColor=none;horizontalStack=0;resizeParent=1;resizeParentMax=0;resizeLast=0;collapsible=1;marginBottom=0;whiteSpace=wrap;html=1;" vertex="1" parent="1">
          <mxGeometry x="-145" y="1380" width="120" height="52" as="geometry" />
        </mxCell>
        <mxCell id="GdIrwZQc3VLpYgN1qTWM-152" value="titulo = &quot;Uncharted&quot;" style="text;strokeColor=none;fillColor=none;align=left;verticalAlign=top;spacingLeft=4;spacingRight=4;overflow=hidden;rotatable=0;points=[[0,0.5],[1,0.5]];portConstraint=eastwest;whiteSpace=wrap;html=1;" vertex="1" parent="GdIrwZQc3VLpYgN1qTWM-151">
          <mxGeometry y="26" width="120" height="26" as="geometry" />
        </mxCell>
        <mxCell id="GdIrwZQc3VLpYgN1qTWM-156" style="edgeStyle=orthogonalEdgeStyle;rounded=0;orthogonalLoop=1;jettySize=auto;html=1;endArrow=none;endFill=0;" edge="1" parent="1" source="GdIrwZQc3VLpYgN1qTWM-153" target="GdIrwZQc3VLpYgN1qTWM-129">
          <mxGeometry relative="1" as="geometry" />
        </mxCell>
        <mxCell id="GdIrwZQc3VLpYgN1qTWM-178" style="edgeStyle=orthogonalEdgeStyle;rounded=0;orthogonalLoop=1;jettySize=auto;html=1;endArrow=none;endFill=0;" edge="1" parent="1" source="GdIrwZQc3VLpYgN1qTWM-153" target="GdIrwZQc3VLpYgN1qTWM-146">
          <mxGeometry relative="1" as="geometry">
            <Array as="points">
              <mxPoint x="400" y="1276" />
              <mxPoint x="400" y="1276" />
            </Array>
          </mxGeometry>
        </mxCell>
        <mxCell id="GdIrwZQc3VLpYgN1qTWM-153" value="jp3: JogoPlataforma" style="swimlane;fontStyle=0;childLayout=stackLayout;horizontal=1;startSize=26;fillColor=none;horizontalStack=0;resizeParent=1;resizeParentMax=0;resizeLast=0;collapsible=1;marginBottom=0;whiteSpace=wrap;html=1;" vertex="1" parent="1">
          <mxGeometry x="150" y="1250" width="150" height="52" as="geometry" />
        </mxCell>
        <mxCell id="GdIrwZQc3VLpYgN1qTWM-154" value="preco = 10.00" style="text;strokeColor=none;fillColor=none;align=left;verticalAlign=top;spacingLeft=4;spacingRight=4;overflow=hidden;rotatable=0;points=[[0,0.5],[1,0.5]];portConstraint=eastwest;whiteSpace=wrap;html=1;" vertex="1" parent="GdIrwZQc3VLpYgN1qTWM-153">
          <mxGeometry y="26" width="150" height="26" as="geometry" />
        </mxCell>
        <mxCell id="GdIrwZQc3VLpYgN1qTWM-161" style="edgeStyle=orthogonalEdgeStyle;rounded=0;orthogonalLoop=1;jettySize=auto;html=1;endArrow=none;endFill=0;" edge="1" parent="1" source="GdIrwZQc3VLpYgN1qTWM-158" target="GdIrwZQc3VLpYgN1qTWM-137">
          <mxGeometry relative="1" as="geometry" />
        </mxCell>
        <mxCell id="GdIrwZQc3VLpYgN1qTWM-179" style="edgeStyle=orthogonalEdgeStyle;rounded=0;orthogonalLoop=1;jettySize=auto;html=1;endArrow=none;endFill=0;" edge="1" parent="1" source="GdIrwZQc3VLpYgN1qTWM-158" target="GdIrwZQc3VLpYgN1qTWM-146">
          <mxGeometry relative="1" as="geometry">
            <Array as="points">
              <mxPoint x="580" y="1276" />
              <mxPoint x="580" y="1276" />
            </Array>
          </mxGeometry>
        </mxCell>
        <mxCell id="GdIrwZQc3VLpYgN1qTWM-158" value="jp4: JogoPlataforma" style="swimlane;fontStyle=0;childLayout=stackLayout;horizontal=1;startSize=26;fillColor=none;horizontalStack=0;resizeParent=1;resizeParentMax=0;resizeLast=0;collapsible=1;marginBottom=0;whiteSpace=wrap;html=1;" vertex="1" parent="1">
          <mxGeometry x="720" y="1250" width="150" height="52" as="geometry" />
        </mxCell>
        <mxCell id="GdIrwZQc3VLpYgN1qTWM-159" value="preco = 8.00" style="text;strokeColor=none;fillColor=none;align=left;verticalAlign=top;spacingLeft=4;spacingRight=4;overflow=hidden;rotatable=0;points=[[0,0.5],[1,0.5]];portConstraint=eastwest;whiteSpace=wrap;html=1;" vertex="1" parent="GdIrwZQc3VLpYgN1qTWM-158">
          <mxGeometry y="26" width="150" height="26" as="geometry" />
        </mxCell>
        <mxCell id="GdIrwZQc3VLpYgN1qTWM-167" style="edgeStyle=orthogonalEdgeStyle;rounded=0;orthogonalLoop=1;jettySize=auto;html=1;endArrow=none;endFill=0;" edge="1" parent="1" source="GdIrwZQc3VLpYgN1qTWM-164" target="GdIrwZQc3VLpYgN1qTWM-137">
          <mxGeometry relative="1" as="geometry" />
        </mxCell>
        <mxCell id="GdIrwZQc3VLpYgN1qTWM-164" value="jp5: JogoPlataforma" style="swimlane;fontStyle=0;childLayout=stackLayout;horizontal=1;startSize=26;fillColor=none;horizontalStack=0;resizeParent=1;resizeParentMax=0;resizeLast=0;collapsible=1;marginBottom=0;whiteSpace=wrap;html=1;" vertex="1" parent="1">
          <mxGeometry x="1040" y="1130" width="130" height="52" as="geometry" />
        </mxCell>
        <mxCell id="GdIrwZQc3VLpYgN1qTWM-165" value="preco = 10.00" style="text;strokeColor=none;fillColor=none;align=left;verticalAlign=top;spacingLeft=4;spacingRight=4;overflow=hidden;rotatable=0;points=[[0,0.5],[1,0.5]];portConstraint=eastwest;whiteSpace=wrap;html=1;" vertex="1" parent="GdIrwZQc3VLpYgN1qTWM-164">
          <mxGeometry y="26" width="130" height="26" as="geometry" />
        </mxCell>
        <mxCell id="GdIrwZQc3VLpYgN1qTWM-171" style="edgeStyle=orthogonalEdgeStyle;rounded=0;orthogonalLoop=1;jettySize=auto;html=1;endArrow=none;endFill=0;" edge="1" parent="1" source="GdIrwZQc3VLpYgN1qTWM-169" target="GdIrwZQc3VLpYgN1qTWM-129">
          <mxGeometry relative="1" as="geometry" />
        </mxCell>
        <mxCell id="GdIrwZQc3VLpYgN1qTWM-169" value="jp1: JogoPlataforma" style="swimlane;fontStyle=0;childLayout=stackLayout;horizontal=1;startSize=26;fillColor=none;horizontalStack=0;resizeParent=1;resizeParentMax=0;resizeLast=0;collapsible=1;marginBottom=0;whiteSpace=wrap;html=1;" vertex="1" parent="1">
          <mxGeometry x="-160" y="1130" width="150" height="52" as="geometry" />
        </mxCell>
        <mxCell id="GdIrwZQc3VLpYgN1qTWM-170" value="preco = 10.00" style="text;strokeColor=none;fillColor=none;align=left;verticalAlign=top;spacingLeft=4;spacingRight=4;overflow=hidden;rotatable=0;points=[[0,0.5],[1,0.5]];portConstraint=eastwest;whiteSpace=wrap;html=1;" vertex="1" parent="GdIrwZQc3VLpYgN1qTWM-169">
          <mxGeometry y="26" width="150" height="26" as="geometry" />
        </mxCell>
        <mxCell id="GdIrwZQc3VLpYgN1qTWM-216" style="edgeStyle=orthogonalEdgeStyle;rounded=0;orthogonalLoop=1;jettySize=auto;html=1;endArrow=none;endFill=0;" edge="1" parent="1" source="GdIrwZQc3VLpYgN1qTWM-173" target="GdIrwZQc3VLpYgN1qTWM-129">
          <mxGeometry relative="1" as="geometry">
            <Array as="points">
              <mxPoint x="-85" y="1220" />
              <mxPoint x="180" y="1220" />
            </Array>
          </mxGeometry>
        </mxCell>
        <mxCell id="GdIrwZQc3VLpYgN1qTWM-173" value="jp2: JogoPlataforma" style="swimlane;fontStyle=0;childLayout=stackLayout;horizontal=1;startSize=26;fillColor=none;horizontalStack=0;resizeParent=1;resizeParentMax=0;resizeLast=0;collapsible=1;marginBottom=0;whiteSpace=wrap;html=1;" vertex="1" parent="1">
          <mxGeometry x="-160" y="1250" width="150" height="52" as="geometry" />
        </mxCell>
        <mxCell id="GdIrwZQc3VLpYgN1qTWM-174" value="preco = 8.00" style="text;strokeColor=none;fillColor=none;align=left;verticalAlign=top;spacingLeft=4;spacingRight=4;overflow=hidden;rotatable=0;points=[[0,0.5],[1,0.5]];portConstraint=eastwest;whiteSpace=wrap;html=1;" vertex="1" parent="GdIrwZQc3VLpYgN1qTWM-173">
          <mxGeometry y="26" width="150" height="26" as="geometry" />
        </mxCell>
        <mxCell id="GdIrwZQc3VLpYgN1qTWM-229" style="edgeStyle=orthogonalEdgeStyle;rounded=0;orthogonalLoop=1;jettySize=auto;html=1;entryX=0.5;entryY=0;entryDx=0;entryDy=0;endArrow=none;endFill=0;" edge="1" parent="1" source="GdIrwZQc3VLpYgN1qTWM-180" target="GdIrwZQc3VLpYgN1qTWM-222">
          <mxGeometry relative="1" as="geometry">
            <Array as="points">
              <mxPoint x="300" y="1770" />
              <mxPoint x="218" y="1770" />
            </Array>
          </mxGeometry>
        </mxCell>
        <mxCell id="GdIrwZQc3VLpYgN1qTWM-230" style="edgeStyle=orthogonalEdgeStyle;rounded=0;orthogonalLoop=1;jettySize=auto;html=1;endArrow=none;endFill=0;" edge="1" parent="1" source="GdIrwZQc3VLpYgN1qTWM-180" target="GdIrwZQc3VLpYgN1qTWM-226">
          <mxGeometry relative="1" as="geometry">
            <Array as="points">
              <mxPoint x="370" y="1770" />
              <mxPoint x="458" y="1770" />
            </Array>
          </mxGeometry>
        </mxCell>
        <mxCell id="GdIrwZQc3VLpYgN1qTWM-180" value="c1: Cliente" style="swimlane;fontStyle=0;childLayout=stackLayout;horizontal=1;startSize=26;fillColor=none;horizontalStack=0;resizeParent=1;resizeParentMax=0;resizeLast=0;collapsible=1;marginBottom=0;whiteSpace=wrap;html=1;" vertex="1" parent="1">
          <mxGeometry x="260" y="1570" width="170" height="130" as="geometry" />
        </mxCell>
        <mxCell id="GdIrwZQc3VLpYgN1qTWM-182" value="nome = &quot;Wagner&quot;" style="text;strokeColor=none;fillColor=none;align=left;verticalAlign=top;spacingLeft=4;spacingRight=4;overflow=hidden;rotatable=0;points=[[0,0.5],[1,0.5]];portConstraint=eastwest;whiteSpace=wrap;html=1;" vertex="1" parent="GdIrwZQc3VLpYgN1qTWM-180">
          <mxGeometry y="26" width="170" height="26" as="geometry" />
        </mxCell>
        <mxCell id="GdIrwZQc3VLpYgN1qTWM-183" value="email = &quot;wag@gmail.com&quot;" style="text;strokeColor=none;fillColor=none;align=left;verticalAlign=top;spacingLeft=4;spacingRight=4;overflow=hidden;rotatable=0;points=[[0,0.5],[1,0.5]];portConstraint=eastwest;whiteSpace=wrap;html=1;" vertex="1" parent="GdIrwZQc3VLpYgN1qTWM-180">
          <mxGeometry y="52" width="170" height="26" as="geometry" />
        </mxCell>
        <mxCell id="GdIrwZQc3VLpYgN1qTWM-184" value="telefone = &quot;3214-5569&quot;" style="text;strokeColor=none;fillColor=none;align=left;verticalAlign=top;spacingLeft=4;spacingRight=4;overflow=hidden;rotatable=0;points=[[0,0.5],[1,0.5]];portConstraint=eastwest;whiteSpace=wrap;html=1;" vertex="1" parent="GdIrwZQc3VLpYgN1qTWM-180">
          <mxGeometry y="78" width="170" height="26" as="geometry" />
        </mxCell>
        <mxCell id="GdIrwZQc3VLpYgN1qTWM-185" value="senha = &quot;$%^78#@&quot;" style="text;strokeColor=none;fillColor=none;align=left;verticalAlign=top;spacingLeft=4;spacingRight=4;overflow=hidden;rotatable=0;points=[[0,0.5],[1,0.5]];portConstraint=eastwest;whiteSpace=wrap;html=1;" vertex="1" parent="GdIrwZQc3VLpYgN1qTWM-180">
          <mxGeometry y="104" width="170" height="26" as="geometry" />
        </mxCell>
        <mxCell id="GdIrwZQc3VLpYgN1qTWM-186" value="c2: Cliente" style="swimlane;fontStyle=0;childLayout=stackLayout;horizontal=1;startSize=26;fillColor=none;horizontalStack=0;resizeParent=1;resizeParentMax=0;resizeLast=0;collapsible=1;marginBottom=0;whiteSpace=wrap;html=1;" vertex="1" parent="1">
          <mxGeometry x="580" y="1570" width="220" height="130" as="geometry" />
        </mxCell>
        <mxCell id="GdIrwZQc3VLpYgN1qTWM-188" value="nome = &quot;Cleiton&quot;" style="text;strokeColor=none;fillColor=none;align=left;verticalAlign=top;spacingLeft=4;spacingRight=4;overflow=hidden;rotatable=0;points=[[0,0.5],[1,0.5]];portConstraint=eastwest;whiteSpace=wrap;html=1;" vertex="1" parent="GdIrwZQc3VLpYgN1qTWM-186">
          <mxGeometry y="26" width="220" height="26" as="geometry" />
        </mxCell>
        <mxCell id="GdIrwZQc3VLpYgN1qTWM-189" value="email = &quot;cleiton@gmail.com&quot;" style="text;strokeColor=none;fillColor=none;align=left;verticalAlign=top;spacingLeft=4;spacingRight=4;overflow=hidden;rotatable=0;points=[[0,0.5],[1,0.5]];portConstraint=eastwest;whiteSpace=wrap;html=1;" vertex="1" parent="GdIrwZQc3VLpYgN1qTWM-186">
          <mxGeometry y="52" width="220" height="26" as="geometry" />
        </mxCell>
        <mxCell id="GdIrwZQc3VLpYgN1qTWM-190" value="telefone = &quot;1234-5678&quot;" style="text;strokeColor=none;fillColor=none;align=left;verticalAlign=top;spacingLeft=4;spacingRight=4;overflow=hidden;rotatable=0;points=[[0,0.5],[1,0.5]];portConstraint=eastwest;whiteSpace=wrap;html=1;" vertex="1" parent="GdIrwZQc3VLpYgN1qTWM-186">
          <mxGeometry y="78" width="220" height="26" as="geometry" />
        </mxCell>
        <mxCell id="GdIrwZQc3VLpYgN1qTWM-191" value="senha = &quot;!@$#VFG&quot;" style="text;strokeColor=none;fillColor=none;align=left;verticalAlign=top;spacingLeft=4;spacingRight=4;overflow=hidden;rotatable=0;points=[[0,0.5],[1,0.5]];portConstraint=eastwest;whiteSpace=wrap;html=1;" vertex="1" parent="GdIrwZQc3VLpYgN1qTWM-186">
          <mxGeometry y="104" width="220" height="26" as="geometry" />
        </mxCell>
        <mxCell id="GdIrwZQc3VLpYgN1qTWM-207" style="edgeStyle=orthogonalEdgeStyle;rounded=0;orthogonalLoop=1;jettySize=auto;html=1;endArrow=none;endFill=0;" edge="1" parent="1" source="GdIrwZQc3VLpYgN1qTWM-192" target="GdIrwZQc3VLpYgN1qTWM-199">
          <mxGeometry relative="1" as="geometry">
            <Array as="points">
              <mxPoint x="1050" y="1540" />
              <mxPoint x="1105" y="1540" />
            </Array>
          </mxGeometry>
        </mxCell>
        <mxCell id="GdIrwZQc3VLpYgN1qTWM-192" value="l2: Locacao" style="swimlane;fontStyle=0;childLayout=stackLayout;horizontal=1;startSize=26;fillColor=none;horizontalStack=0;resizeParent=1;resizeParentMax=0;resizeLast=0;collapsible=1;marginBottom=0;whiteSpace=wrap;html=1;" vertex="1" parent="1">
          <mxGeometry x="940" y="1609" width="140" height="52" as="geometry" />
        </mxCell>
        <mxCell id="GdIrwZQc3VLpYgN1qTWM-194" value="- data = 01/02/2023" style="text;strokeColor=none;fillColor=none;align=left;verticalAlign=top;spacingLeft=4;spacingRight=4;overflow=hidden;rotatable=0;points=[[0,0.5],[1,0.5]];portConstraint=eastwest;whiteSpace=wrap;html=1;" vertex="1" parent="GdIrwZQc3VLpYgN1qTWM-192">
          <mxGeometry y="26" width="140" height="26" as="geometry" />
        </mxCell>
        <mxCell id="GdIrwZQc3VLpYgN1qTWM-195" style="edgeStyle=orthogonalEdgeStyle;rounded=0;orthogonalLoop=1;jettySize=auto;html=1;endArrow=none;endFill=0;" edge="1" parent="1" source="GdIrwZQc3VLpYgN1qTWM-189" target="GdIrwZQc3VLpYgN1qTWM-192">
          <mxGeometry relative="1" as="geometry" />
        </mxCell>
        <mxCell id="GdIrwZQc3VLpYgN1qTWM-213" style="edgeStyle=orthogonalEdgeStyle;rounded=0;orthogonalLoop=1;jettySize=auto;html=1;endArrow=none;endFill=0;" edge="1" parent="1" source="GdIrwZQc3VLpYgN1qTWM-196" target="GdIrwZQc3VLpYgN1qTWM-209">
          <mxGeometry relative="1" as="geometry" />
        </mxCell>
        <mxCell id="GdIrwZQc3VLpYgN1qTWM-220" style="edgeStyle=orthogonalEdgeStyle;rounded=0;orthogonalLoop=1;jettySize=auto;html=1;endArrow=none;endFill=0;" edge="1" parent="1" source="GdIrwZQc3VLpYgN1qTWM-196" target="GdIrwZQc3VLpYgN1qTWM-217">
          <mxGeometry relative="1" as="geometry" />
        </mxCell>
        <mxCell id="GdIrwZQc3VLpYgN1qTWM-196" value="l1:&amp;nbsp; Locacao" style="swimlane;fontStyle=0;childLayout=stackLayout;horizontal=1;startSize=26;fillColor=none;horizontalStack=0;resizeParent=1;resizeParentMax=0;resizeLast=0;collapsible=1;marginBottom=0;whiteSpace=wrap;html=1;" vertex="1" parent="1">
          <mxGeometry x="-10" y="1609" width="140" height="52" as="geometry" />
        </mxCell>
        <mxCell id="GdIrwZQc3VLpYgN1qTWM-197" value="- data: 15/02/2023" style="text;strokeColor=none;fillColor=none;align=left;verticalAlign=top;spacingLeft=4;spacingRight=4;overflow=hidden;rotatable=0;points=[[0,0.5],[1,0.5]];portConstraint=eastwest;whiteSpace=wrap;html=1;" vertex="1" parent="GdIrwZQc3VLpYgN1qTWM-196">
          <mxGeometry y="26" width="140" height="26" as="geometry" />
        </mxCell>
        <mxCell id="GdIrwZQc3VLpYgN1qTWM-198" style="edgeStyle=orthogonalEdgeStyle;rounded=0;orthogonalLoop=1;jettySize=auto;html=1;exitX=0;exitY=0.5;exitDx=0;exitDy=0;endArrow=none;endFill=0;" edge="1" parent="1" source="GdIrwZQc3VLpYgN1qTWM-183" target="GdIrwZQc3VLpYgN1qTWM-196">
          <mxGeometry relative="1" as="geometry" />
        </mxCell>
        <mxCell id="GdIrwZQc3VLpYgN1qTWM-208" style="edgeStyle=orthogonalEdgeStyle;rounded=0;orthogonalLoop=1;jettySize=auto;html=1;endArrow=none;endFill=0;" edge="1" parent="1" source="GdIrwZQc3VLpYgN1qTWM-199" target="GdIrwZQc3VLpYgN1qTWM-164">
          <mxGeometry relative="1" as="geometry" />
        </mxCell>
        <mxCell id="GdIrwZQc3VLpYgN1qTWM-199" value="dl1: DetalhesLocacao" style="swimlane;fontStyle=0;childLayout=stackLayout;horizontal=1;startSize=26;fillColor=none;horizontalStack=0;resizeParent=1;resizeParentMax=0;resizeLast=0;collapsible=1;marginBottom=0;whiteSpace=wrap;html=1;" vertex="1" parent="1">
          <mxGeometry x="1005" y="1400" width="200" height="78" as="geometry" />
        </mxCell>
        <mxCell id="GdIrwZQc3VLpYgN1qTWM-200" value="- duracaoLocacao: 5" style="text;strokeColor=none;fillColor=none;align=left;verticalAlign=top;spacingLeft=4;spacingRight=4;overflow=hidden;rotatable=0;points=[[0,0.5],[1,0.5]];portConstraint=eastwest;whiteSpace=wrap;html=1;" vertex="1" parent="GdIrwZQc3VLpYgN1qTWM-199">
          <mxGeometry y="26" width="200" height="26" as="geometry" />
        </mxCell>
        <mxCell id="GdIrwZQc3VLpYgN1qTWM-201" value="- quantidade: 1" style="text;strokeColor=none;fillColor=none;align=left;verticalAlign=top;spacingLeft=4;spacingRight=4;overflow=hidden;rotatable=0;points=[[0,0.5],[1,0.5]];portConstraint=eastwest;whiteSpace=wrap;html=1;" vertex="1" parent="GdIrwZQc3VLpYgN1qTWM-199">
          <mxGeometry y="52" width="200" height="26" as="geometry" />
        </mxCell>
        <mxCell id="GdIrwZQc3VLpYgN1qTWM-205" style="edgeStyle=orthogonalEdgeStyle;rounded=0;orthogonalLoop=1;jettySize=auto;html=1;endArrow=none;endFill=0;" edge="1" parent="1" source="GdIrwZQc3VLpYgN1qTWM-202" target="GdIrwZQc3VLpYgN1qTWM-158">
          <mxGeometry relative="1" as="geometry" />
        </mxCell>
        <mxCell id="GdIrwZQc3VLpYgN1qTWM-206" style="edgeStyle=orthogonalEdgeStyle;rounded=0;orthogonalLoop=1;jettySize=auto;html=1;endArrow=none;endFill=0;" edge="1" parent="1" source="GdIrwZQc3VLpYgN1qTWM-202" target="GdIrwZQc3VLpYgN1qTWM-192">
          <mxGeometry relative="1" as="geometry">
            <Array as="points">
              <mxPoint x="795" y="1540" />
              <mxPoint x="970" y="1540" />
            </Array>
          </mxGeometry>
        </mxCell>
        <mxCell id="GdIrwZQc3VLpYgN1qTWM-202" value="dl2: DetalhesLocacao" style="swimlane;fontStyle=0;childLayout=stackLayout;horizontal=1;startSize=26;fillColor=none;horizontalStack=0;resizeParent=1;resizeParentMax=0;resizeLast=0;collapsible=1;marginBottom=0;whiteSpace=wrap;html=1;" vertex="1" parent="1">
          <mxGeometry x="695" y="1400" width="200" height="78" as="geometry" />
        </mxCell>
        <mxCell id="GdIrwZQc3VLpYgN1qTWM-203" value="- duracaoLocacao: 3" style="text;strokeColor=none;fillColor=none;align=left;verticalAlign=top;spacingLeft=4;spacingRight=4;overflow=hidden;rotatable=0;points=[[0,0.5],[1,0.5]];portConstraint=eastwest;whiteSpace=wrap;html=1;" vertex="1" parent="GdIrwZQc3VLpYgN1qTWM-202">
          <mxGeometry y="26" width="200" height="26" as="geometry" />
        </mxCell>
        <mxCell id="GdIrwZQc3VLpYgN1qTWM-204" value="- quantidade: 1" style="text;strokeColor=none;fillColor=none;align=left;verticalAlign=top;spacingLeft=4;spacingRight=4;overflow=hidden;rotatable=0;points=[[0,0.5],[1,0.5]];portConstraint=eastwest;whiteSpace=wrap;html=1;" vertex="1" parent="GdIrwZQc3VLpYgN1qTWM-202">
          <mxGeometry y="52" width="200" height="26" as="geometry" />
        </mxCell>
        <mxCell id="GdIrwZQc3VLpYgN1qTWM-214" style="edgeStyle=orthogonalEdgeStyle;rounded=0;orthogonalLoop=1;jettySize=auto;html=1;endArrow=none;endFill=0;" edge="1" parent="1" source="GdIrwZQc3VLpYgN1qTWM-209" target="GdIrwZQc3VLpYgN1qTWM-173">
          <mxGeometry relative="1" as="geometry">
            <mxPoint x="-220" y="1370" as="targetPoint" />
            <Array as="points">
              <mxPoint x="-210" y="1276" />
            </Array>
          </mxGeometry>
        </mxCell>
        <mxCell id="GdIrwZQc3VLpYgN1qTWM-209" value="dl3: DetalhesLocacao" style="swimlane;fontStyle=0;childLayout=stackLayout;horizontal=1;startSize=26;fillColor=none;horizontalStack=0;resizeParent=1;resizeParentMax=0;resizeLast=0;collapsible=1;marginBottom=0;whiteSpace=wrap;html=1;" vertex="1" parent="1">
          <mxGeometry x="-310" y="1596" width="200" height="78" as="geometry" />
        </mxCell>
        <mxCell id="GdIrwZQc3VLpYgN1qTWM-210" value="- duracaoLocacao: 10" style="text;strokeColor=none;fillColor=none;align=left;verticalAlign=top;spacingLeft=4;spacingRight=4;overflow=hidden;rotatable=0;points=[[0,0.5],[1,0.5]];portConstraint=eastwest;whiteSpace=wrap;html=1;" vertex="1" parent="GdIrwZQc3VLpYgN1qTWM-209">
          <mxGeometry y="26" width="200" height="26" as="geometry" />
        </mxCell>
        <mxCell id="GdIrwZQc3VLpYgN1qTWM-211" value="- quantidade: 1" style="text;strokeColor=none;fillColor=none;align=left;verticalAlign=top;spacingLeft=4;spacingRight=4;overflow=hidden;rotatable=0;points=[[0,0.5],[1,0.5]];portConstraint=eastwest;whiteSpace=wrap;html=1;" vertex="1" parent="GdIrwZQc3VLpYgN1qTWM-209">
          <mxGeometry y="52" width="200" height="26" as="geometry" />
        </mxCell>
        <mxCell id="GdIrwZQc3VLpYgN1qTWM-221" style="edgeStyle=orthogonalEdgeStyle;rounded=0;orthogonalLoop=1;jettySize=auto;html=1;endArrow=none;endFill=0;" edge="1" parent="1" source="GdIrwZQc3VLpYgN1qTWM-217" target="GdIrwZQc3VLpYgN1qTWM-153">
          <mxGeometry relative="1" as="geometry" />
        </mxCell>
        <mxCell id="GdIrwZQc3VLpYgN1qTWM-217" value="dl4: DetalhesLocacao" style="swimlane;fontStyle=0;childLayout=stackLayout;horizontal=1;startSize=26;fillColor=none;horizontalStack=0;resizeParent=1;resizeParentMax=0;resizeLast=0;collapsible=1;marginBottom=0;whiteSpace=wrap;html=1;" vertex="1" parent="1">
          <mxGeometry x="40" y="1432" width="200" height="78" as="geometry" />
        </mxCell>
        <mxCell id="GdIrwZQc3VLpYgN1qTWM-218" value="- duracaoLocacao: 5" style="text;strokeColor=none;fillColor=none;align=left;verticalAlign=top;spacingLeft=4;spacingRight=4;overflow=hidden;rotatable=0;points=[[0,0.5],[1,0.5]];portConstraint=eastwest;whiteSpace=wrap;html=1;" vertex="1" parent="GdIrwZQc3VLpYgN1qTWM-217">
          <mxGeometry y="26" width="200" height="26" as="geometry" />
        </mxCell>
        <mxCell id="GdIrwZQc3VLpYgN1qTWM-219" value="- quantidade: 1" style="text;strokeColor=none;fillColor=none;align=left;verticalAlign=top;spacingLeft=4;spacingRight=4;overflow=hidden;rotatable=0;points=[[0,0.5],[1,0.5]];portConstraint=eastwest;whiteSpace=wrap;html=1;" vertex="1" parent="GdIrwZQc3VLpYgN1qTWM-217">
          <mxGeometry y="52" width="200" height="26" as="geometry" />
        </mxCell>
        <mxCell id="GdIrwZQc3VLpYgN1qTWM-239" style="edgeStyle=orthogonalEdgeStyle;rounded=0;orthogonalLoop=1;jettySize=auto;html=1;endArrow=none;endFill=0;" edge="1" parent="1" source="GdIrwZQc3VLpYgN1qTWM-222" target="GdIrwZQc3VLpYgN1qTWM-236">
          <mxGeometry relative="1" as="geometry" />
        </mxCell>
        <mxCell id="GdIrwZQc3VLpYgN1qTWM-222" value="u1: Utilizacao" style="swimlane;fontStyle=0;childLayout=stackLayout;horizontal=1;startSize=26;fillColor=none;horizontalStack=0;resizeParent=1;resizeParentMax=0;resizeLast=0;collapsible=1;marginBottom=0;whiteSpace=wrap;html=1;" vertex="1" parent="1">
          <mxGeometry x="130" y="1840" width="175" height="78" as="geometry" />
        </mxCell>
        <mxCell id="GdIrwZQc3VLpYgN1qTWM-224" value="- inicio: 18/02/2023 08:00:00" style="text;strokeColor=none;fillColor=none;align=left;verticalAlign=top;spacingLeft=4;spacingRight=4;overflow=hidden;rotatable=0;points=[[0,0.5],[1,0.5]];portConstraint=eastwest;whiteSpace=wrap;html=1;" vertex="1" parent="GdIrwZQc3VLpYgN1qTWM-222">
          <mxGeometry y="26" width="175" height="26" as="geometry" />
        </mxCell>
        <mxCell id="GdIrwZQc3VLpYgN1qTWM-225" value="- termino: 18/02/2023 11:37:00" style="text;strokeColor=none;fillColor=none;align=left;verticalAlign=top;spacingLeft=4;spacingRight=4;overflow=hidden;rotatable=0;points=[[0,0.5],[1,0.5]];portConstraint=eastwest;whiteSpace=wrap;html=1;" vertex="1" parent="GdIrwZQc3VLpYgN1qTWM-222">
          <mxGeometry y="52" width="175" height="26" as="geometry" />
        </mxCell>
        <mxCell id="GdIrwZQc3VLpYgN1qTWM-235" style="edgeStyle=orthogonalEdgeStyle;rounded=0;orthogonalLoop=1;jettySize=auto;html=1;endArrow=none;endFill=0;" edge="1" parent="1" source="GdIrwZQc3VLpYgN1qTWM-226" target="GdIrwZQc3VLpYgN1qTWM-231">
          <mxGeometry relative="1" as="geometry" />
        </mxCell>
        <mxCell id="GdIrwZQc3VLpYgN1qTWM-226" value="Utilizacao" style="swimlane;fontStyle=0;childLayout=stackLayout;horizontal=1;startSize=26;fillColor=none;horizontalStack=0;resizeParent=1;resizeParentMax=0;resizeLast=0;collapsible=1;marginBottom=0;whiteSpace=wrap;html=1;" vertex="1" parent="1">
          <mxGeometry x="370" y="1840" width="175" height="78" as="geometry" />
        </mxCell>
        <mxCell id="GdIrwZQc3VLpYgN1qTWM-227" value="- inicio: 25/02/2023 14:00:00" style="text;strokeColor=none;fillColor=none;align=left;verticalAlign=top;spacingLeft=4;spacingRight=4;overflow=hidden;rotatable=0;points=[[0,0.5],[1,0.5]];portConstraint=eastwest;whiteSpace=wrap;html=1;" vertex="1" parent="GdIrwZQc3VLpYgN1qTWM-226">
          <mxGeometry y="26" width="175" height="26" as="geometry" />
        </mxCell>
        <mxCell id="GdIrwZQc3VLpYgN1qTWM-228" value="- termino: 18/02/2023 17:43:00" style="text;strokeColor=none;fillColor=none;align=left;verticalAlign=top;spacingLeft=4;spacingRight=4;overflow=hidden;rotatable=0;points=[[0,0.5],[1,0.5]];portConstraint=eastwest;whiteSpace=wrap;html=1;" vertex="1" parent="GdIrwZQc3VLpYgN1qTWM-226">
          <mxGeometry y="52" width="175" height="26" as="geometry" />
        </mxCell>
        <mxCell id="GdIrwZQc3VLpYgN1qTWM-246" style="edgeStyle=orthogonalEdgeStyle;rounded=0;orthogonalLoop=1;jettySize=auto;html=1;endArrow=none;endFill=0;" edge="1" parent="1" source="GdIrwZQc3VLpYgN1qTWM-231" target="GdIrwZQc3VLpYgN1qTWM-244">
          <mxGeometry relative="1" as="geometry" />
        </mxCell>
        <mxCell id="GdIrwZQc3VLpYgN1qTWM-231" value="Console" style="swimlane;fontStyle=0;childLayout=stackLayout;horizontal=1;startSize=26;fillColor=none;horizontalStack=0;resizeParent=1;resizeParentMax=0;resizeLast=0;collapsible=1;marginBottom=0;whiteSpace=wrap;html=1;" vertex="1" parent="1">
          <mxGeometry x="674" y="1840" width="152.5" height="78" as="geometry" />
        </mxCell>
        <mxCell id="GdIrwZQc3VLpYgN1qTWM-233" value="- nome: Nintendo Switch" style="text;strokeColor=none;fillColor=none;align=left;verticalAlign=top;spacingLeft=4;spacingRight=4;overflow=hidden;rotatable=0;points=[[0,0.5],[1,0.5]];portConstraint=eastwest;whiteSpace=wrap;html=1;" vertex="1" parent="GdIrwZQc3VLpYgN1qTWM-231">
          <mxGeometry y="26" width="152.5" height="26" as="geometry" />
        </mxCell>
        <mxCell id="GdIrwZQc3VLpYgN1qTWM-234" value="- PrecoHora: 2.50" style="text;strokeColor=none;fillColor=none;align=left;verticalAlign=top;spacingLeft=4;spacingRight=4;overflow=hidden;rotatable=0;points=[[0,0.5],[1,0.5]];portConstraint=eastwest;whiteSpace=wrap;html=1;" vertex="1" parent="GdIrwZQc3VLpYgN1qTWM-231">
          <mxGeometry y="52" width="152.5" height="26" as="geometry" />
        </mxCell>
        <mxCell id="GdIrwZQc3VLpYgN1qTWM-243" style="edgeStyle=orthogonalEdgeStyle;rounded=0;orthogonalLoop=1;jettySize=auto;html=1;endArrow=none;endFill=0;" edge="1" parent="1" source="GdIrwZQc3VLpYgN1qTWM-236" target="GdIrwZQc3VLpYgN1qTWM-240">
          <mxGeometry relative="1" as="geometry" />
        </mxCell>
        <mxCell id="GdIrwZQc3VLpYgN1qTWM-249" style="edgeStyle=orthogonalEdgeStyle;rounded=0;orthogonalLoop=1;jettySize=auto;html=1;endArrow=none;endFill=0;" edge="1" parent="1" source="GdIrwZQc3VLpYgN1qTWM-236" target="GdIrwZQc3VLpYgN1qTWM-247">
          <mxGeometry relative="1" as="geometry" />
        </mxCell>
        <mxCell id="GdIrwZQc3VLpYgN1qTWM-236" value="c1: Console" style="swimlane;fontStyle=0;childLayout=stackLayout;horizontal=1;startSize=26;fillColor=none;horizontalStack=0;resizeParent=1;resizeParentMax=0;resizeLast=0;collapsible=1;marginBottom=0;whiteSpace=wrap;html=1;" vertex="1" parent="1">
          <mxGeometry x="-160" y="1840" width="152.5" height="78" as="geometry" />
        </mxCell>
        <mxCell id="GdIrwZQc3VLpYgN1qTWM-237" value="- nome: Xboix One" style="text;strokeColor=none;fillColor=none;align=left;verticalAlign=top;spacingLeft=4;spacingRight=4;overflow=hidden;rotatable=0;points=[[0,0.5],[1,0.5]];portConstraint=eastwest;whiteSpace=wrap;html=1;" vertex="1" parent="GdIrwZQc3VLpYgN1qTWM-236">
          <mxGeometry y="26" width="152.5" height="26" as="geometry" />
        </mxCell>
        <mxCell id="GdIrwZQc3VLpYgN1qTWM-238" value="- PrecoHora: 2.50" style="text;strokeColor=none;fillColor=none;align=left;verticalAlign=top;spacingLeft=4;spacingRight=4;overflow=hidden;rotatable=0;points=[[0,0.5],[1,0.5]];portConstraint=eastwest;whiteSpace=wrap;html=1;" vertex="1" parent="GdIrwZQc3VLpYgN1qTWM-236">
          <mxGeometry y="52" width="152.5" height="26" as="geometry" />
        </mxCell>
        <mxCell id="GdIrwZQc3VLpYgN1qTWM-240" value="a1: Acessorio" style="swimlane;fontStyle=0;childLayout=stackLayout;horizontal=1;startSize=26;fillColor=none;horizontalStack=0;resizeParent=1;resizeParentMax=0;resizeLast=0;collapsible=1;marginBottom=0;whiteSpace=wrap;html=1;" vertex="1" parent="1">
          <mxGeometry x="-420" y="1853" width="140" height="52" as="geometry" />
        </mxCell>
        <mxCell id="GdIrwZQc3VLpYgN1qTWM-242" value="- nome: &quot;Controle Xbox&quot;" style="text;strokeColor=none;fillColor=none;align=left;verticalAlign=top;spacingLeft=4;spacingRight=4;overflow=hidden;rotatable=0;points=[[0,0.5],[1,0.5]];portConstraint=eastwest;whiteSpace=wrap;html=1;" vertex="1" parent="GdIrwZQc3VLpYgN1qTWM-240">
          <mxGeometry y="26" width="140" height="26" as="geometry" />
        </mxCell>
        <mxCell id="GdIrwZQc3VLpYgN1qTWM-244" value="Acessorio" style="swimlane;fontStyle=0;childLayout=stackLayout;horizontal=1;startSize=26;fillColor=none;horizontalStack=0;resizeParent=1;resizeParentMax=0;resizeLast=0;collapsible=1;marginBottom=0;whiteSpace=wrap;html=1;" vertex="1" parent="1">
          <mxGeometry x="980" y="1853" width="140" height="52" as="geometry" />
        </mxCell>
        <mxCell id="GdIrwZQc3VLpYgN1qTWM-245" value="- nome: &quot;Controle&quot;" style="text;strokeColor=none;fillColor=none;align=left;verticalAlign=top;spacingLeft=4;spacingRight=4;overflow=hidden;rotatable=0;points=[[0,0.5],[1,0.5]];portConstraint=eastwest;whiteSpace=wrap;html=1;" vertex="1" parent="GdIrwZQc3VLpYgN1qTWM-244">
          <mxGeometry y="26" width="140" height="26" as="geometry" />
        </mxCell>
        <mxCell id="GdIrwZQc3VLpYgN1qTWM-247" value="a1: Acessorio" style="swimlane;fontStyle=0;childLayout=stackLayout;horizontal=1;startSize=26;fillColor=none;horizontalStack=0;resizeParent=1;resizeParentMax=0;resizeLast=0;collapsible=1;marginBottom=0;whiteSpace=wrap;html=1;" vertex="1" parent="1">
          <mxGeometry x="-153.75" y="2050" width="140" height="52" as="geometry" />
        </mxCell>
        <mxCell id="GdIrwZQc3VLpYgN1qTWM-248" value="- nome: &quot;Controle Xbox&quot;" style="text;strokeColor=none;fillColor=none;align=left;verticalAlign=top;spacingLeft=4;spacingRight=4;overflow=hidden;rotatable=0;points=[[0,0.5],[1,0.5]];portConstraint=eastwest;whiteSpace=wrap;html=1;" vertex="1" parent="GdIrwZQc3VLpYgN1qTWM-247">
          <mxGeometry y="26" width="140" height="26" as="geometry" />
        </mxCell>
      </root>
    </mxGraphModel>
  </diagram>
</mxfile>
